PathFileType	4	(X/Y/Z)	./resultDataOpenSim/trcMotMarkerGrf/sub09/qtm-03-08.trc
DataRate	CameraRate	NumFrames	NumMarkers	Units	OrigDataRate	OrigDataStartFrame	OrigNumFrames
250.000000	250.000000	12	24	m	250.000000	1	485
Frame#	Time	L.Toe.Tip			R.Toe.Tip			L.Ankle.Lat			R.Ankle.Lat			L.Ankle.Med			R.Ankle.Med			L.Heel			R.Heel			L.Knee.Lat			R.Knee.Lat			L.Knee.Med			R.Knee.Med			L.Thigh.Upper			R.Thigh.Upper			L.ASIS			R.ASIS			V.Sacral			L.Acromium			R.Acromium			C7			L.Elbow			R.Elbow			L.Wrist.Lat			R.Wrist.Lat
		X1	Y1	Z1	X2	Y2	Z2	X3	Y3	Z3	X4	Y4	Z4	X5	Y5	Z5	X6	Y6	Z6	X7	Y7	Z7	X8	Y8	Z8	X9	Y9	Z9	X10	Y10	Z10	X11	Y11	Z11	X12	Y12	Z12	X13	Y13	Z13	X14	Y14	Z14	X15	Y15	Z15	X16	Y16	Z16	X17	Y17	Z17	X18	Y18	Z18	X19	Y19	Z19	X20	Y20	Z20	X21	Y21	Z21	X22	Y22	Z22	X23	Y23	Z23	X24	Y24	Z24

1	0	-1.4817034	0.036800526	-0.054345045	-0.91756872	0.0992257	0.1046177	-1.6312432	0.074537639	-0.08501701	-1.0679393	0.07618662	0.12851248	-1.603	0.088417718	0.0078210777	-1.0597955	0.11478401	0.037453228	NaN	NaN	NaN	-1.1166748	0.034567781	0.072268387	-1.4891182	0.47068462	-0.13678526	-1.1523622	0.52655366	0.16774893	-1.4869765	0.46838758	-0.010545763	-1.1506402	0.50595767	0.039651401	-1.3970556	0.88183559	-0.17032339	-1.3597289	0.87478703	0.19872623	-1.2930237	0.95642469	-0.11972952	-1.2817855	0.96062594	0.12036353	-1.4488582	1.0164786	0.011345727	-1.2671889	1.4084741	-0.15425843	-1.2960751	1.4179835	0.17310012	-1.3446989	1.4656435	0.007879793	-1.3576158	1.0434668	-0.22945729	-1.4571206	1.0952067	0.26105758	-1.1118699	0.92563314	-0.22651958	-1.3497214	0.84812492	0.29931661
2	0.004	-1.4817254	0.036737977	-0.054285018	-0.90267487	0.1032982	0.1055495	-1.6311607	0.075009093	-0.084594841	-1.0525184	0.076853485	0.12983172	-1.6025978	0.088807141	0.0082306253	-1.0452897	0.11553468	0.038636358	NaN	NaN	NaN	-1.1004389	0.034063583	0.073856933	-1.4864484	0.47024009	-0.13658305	-1.146291	0.5255767	0.16810798	-1.4848642	0.46787557	-0.010234032	-1.144446	0.50473255	0.040106238	-1.3914756	0.88047871	-0.17008299	-1.3539761	0.87338236	0.19895554	-1.2873363	0.95511938	-0.11963861	-1.2760726	0.95934935	0.12050154	-1.4433416	1.0149503	0.011383449	-1.2616563	1.4072682	-0.15380012	-1.2907792	1.4164626	0.17355715	-1.3395472	1.4644828	0.008454749	-1.3512034	1.0419525	-0.22913682	-1.4516339	1.0936966	0.26123838	-1.1045756	0.92584838	-0.22585667	-1.3446711	0.84642815	0.29955525
3	0.008	-1.4817369	0.036677149	-0.054215745	-0.8879912	0.10737061	0.10646747	-1.6310402	0.075506824	-0.084150267	-1.0372522	0.077600403	0.13115383	-1.6020433	0.089225673	0.0086030626	-1.0309452	0.11632086	0.039838335	NaN	NaN	NaN	-1.0843265	0.033624224	0.075644457	-1.4836809	0.4698015	-0.13639676	-1.140074	0.52459927	0.16853581	-1.4825349	0.46745866	-0.0099505301	-1.1382038	0.50351085	0.040556304	-1.3858771	0.87911955	-0.16985351	-1.3482097	0.87194723	0.19916646	-1.2816275	0.95377848	-0.11953573	-1.27034	0.95806999	0.12066149	-1.4378201	1.0133797	0.01141148	-1.2561235	1.4060477	-0.15334593	-1.2854011	1.414932	0.17400799	-1.3343815	1.4632341	0.008915888	-1.3447913	1.0404354	-0.22879343	-1.4460097	1.0922843	0.26154378	-1.0973222	0.92601635	-0.22518918	-1.3395909	0.84474721	0.29982498
4	0.012	-1.4817263	0.036618203	-0.054136785	-0.87364521	0.11142688	0.1073625	-1.6308722	0.076042044	-0.08367778	-1.0221059	0.078541084	0.13252735	-1.6013792	0.089669968	0.0089493319	-1.0168709	0.11716141	0.04106913	NaN	NaN	NaN	-1.0684275	0.033284764	0.077709987	-1.4807754	0.46935894	-0.13620556	-1.1336859	0.52362334	0.16903749	-1.4799545	0.46714706	-0.0096877556	-1.1319045	0.5022798	0.041005439	-1.3802422	0.87774548	-0.16963741	-1.3423784	0.87047296	0.19936086	-1.2758801	0.95238692	-0.1194157	-1.2645522	0.95677753	0.12085327	-1.4322747	1.0117508	0.011429934	-1.2505732	1.4048017	-0.1528913	-1.2799276	1.4133845	0.17445994	-1.3291393	1.4618751	0.0092573326	-1.3383736	1.0389195	-0.22841651	-1.440102	1.0909441	0.26200136	-1.0901177	0.92610654	-0.22451638	-1.3344548	0.84307858	0.30013404
5	0.016	-1.4816865	0.036557905	-0.054053568	-0.85971137	0.11542037	0.10822228	-1.6306704	0.076612821	-0.08318924	-1.0068796	0.079819582	0.13402415	-1.6007584	0.090111764	0.0093133594	-1.0031391	0.11805298	0.042319408	NaN	NaN	NaN	-1.052866	0.033076009	0.079933227	-1.4777546	0.46890195	-0.13598436	-1.1271898	0.52265291	0.16957568	-1.4771715	0.46689254	-0.0094151114	-1.1255821	0.50102705	0.041465053	-1.3745752	0.8763484	-0.16943631	-1.3364531	0.86897016	0.19955193	-1.2701013	0.95095866	-0.11928039	-1.258697	0.95546331	0.12106964	-1.4266837	1.0100844	0.011463161	-1.2449875	1.4035301	-0.15242701	-1.2743902	1.4118227	0.17491901	-1.3237929	1.4604521	0.0095405695	-1.3319568	1.0374092	-0.22800914	-1.4339363	1.0895729	0.26254464	-1.082958	0.92611684	-0.22383868	-1.3292613	0.84141148	0.3004671
6	0.02	-1.4816226	0.036492173	-0.053970902	-0.8462247	0.11928834	0.10904197	-1.6304408	0.077220576	-0.082701724	-0.99145044	0.08149783	0.13566353	-1.6002378	0.090534912	0.0097287877	-0.98978423	0.11897893	0.043566447	NaN	NaN	NaN	-1.0377714	0.033030702	0.082085368	-1.474646	0.46843807	-0.13573732	-1.1206285	0.52168443	0.1701238	-1.4741713	0.4666529	-0.0091115342	-1.1192649	0.49974811	0.041941317	-1.3688896	0.87493379	-0.16924922	-1.3304357	0.86745048	0.19975097	-1.2643005	0.94951623	-0.11913646	-1.2527842	0.95412911	0.12129697	-1.4210295	1.0084091	0.011543368	-1.2393548	1.4022406	-0.15195077	-1.2688068	1.4102521	0.17538287	-1.3183366	1.4590283	0.0099032403	-1.3255464	1.0359026	-0.22757751	-1.4277511	1.0881072	0.2630814	-1.0758165	0.9260657	-0.22314651	-1.3240112	0.83974077	0.30080665
7	0.024	-1.4815483	0.036421391	-0.05389275	-0.83319614	0.12296825	0.10984001	-1.6301709	0.077877394	-0.082234203	-0.9761767	0.083365961	0.13732998	-1.599743	0.090958828	0.010186337	-0.97683478	0.11991555	0.044782414	NaN	NaN	NaN	-1.0232192	0.033138986	0.08402444	-1.4714399	0.46798539	-0.13547883	-1.1140079	0.52071118	0.17068016	-1.4709473	0.46640589	-0.008774389	-1.1129637	0.49844085	0.04242978	-1.3632009	0.87351536	-0.16906928	-1.324335	0.86592152	0.19996145	-1.2584782	0.94807359	-0.11899181	-1.2468255	0.95278419	0.12152994	-1.4153124	1.0067391	0.011684493	-1.2336744	1.4009418	-0.15146731	-1.2631803	1.4086755	0.17584685	-1.3127171	1.4576482	0.010594491	-1.3191421	1.0343989	-0.22712357	-1.4217455	1.0865576	0.26355741	-1.0686499	0.92597237	-0.22242407	-1.3187013	0.83806907	0.30114822
8	0.028	-1.4814734	0.036350155	-0.053822298	-0.82060775	0.12641342	0.1106481	-1.6298491	0.078596253	-0.08180983	-0.9617821	0.085015775	0.13881873	-1.5991824	0.091428105	0.010626218	-0.96431873	0.12083923	0.045943259	NaN	NaN	NaN	-1.0092329	0.033340311	0.085735487	-1.4680943	0.46754989	-0.13521004	-1.1073273	0.51973662	0.17125688	-1.4675628	0.46613488	-0.0084137715	-1.1066773	0.49710947	0.042929627	-1.3575234	0.87210401	-0.16888499	-1.3181567	0.86438946	0.20017971	-1.2526359	0.94663628	-0.11885458	-1.2408244	0.95143266	0.12176675	-1.4095445	1.0050778	0.011881811	-1.2279489	1.3996365	-0.15097852	-1.257508	1.4070946	0.17630947	-1.3068808	1.4563231	0.011796855	-1.3127443	1.0328985	-0.22665912	-1.4159107	1.0849639	0.26397784	-1.0614583	0.92584178	-0.22167381	-1.3133352	0.83639899	0.301496
9	0.032	-1.4813988	0.036282267	-0.053758893	-0.80842291	0.12960204	0.11146631	-1.6294811	0.079378259	-0.081452604	-0.94865961	0.086211134	0.14001214	-1.5985336	0.091977178	0.010969345	-0.95224941	0.12173645	0.047038021	NaN	NaN	NaN	-0.99584042	0.033569837	0.087210549	-1.4645813	0.46711802	-0.13492861	-1.1005851	0.51877705	0.17187155	-1.4640608	0.46582697	-0.0080474539	-1.1003872	0.49577185	0.043447314	-1.3518632	0.8707063	-0.16867819	-1.3118974	0.86285939	0.20040577	-1.2467812	0.94520246	-0.11873716	-1.2347789	0.9500757	0.12200167	-1.4037369	1.0034295	0.012120996	-1.2221827	1.3983236	-0.15048405	-1.2517878	1.4055138	0.17677311	-1.300892	1.4550257	0.013345559	-1.3063698	1.0313965	-0.22625202	-1.4101347	1.0833592	0.26438703	-1.0543317	0.92566041	-0.22092923	-1.3079173	0.83472939	0.30185349
10	0.036	-1.4813217	0.036218563	-0.05369805	-0.79664633	0.13252492	0.11224914	-1.6290844	0.080216508	-0.081177091	-0.93658259	0.087041235	0.14096694	-1.5978543	0.092596549	0.011182471	-0.94062895	0.12260021	0.048062844	NaN	NaN	NaN	-0.98307499	0.03379108	0.088407921	-1.4609065	0.4666765	-0.13464526	-1.0937653	0.51784813	0.1725377	-1.4604193	0.46547312	-0.0076887934	-1.0940485	0.49445321	0.043981404	-1.3462176	0.86932929	-0.16843197	-1.3055529	0.86133112	0.20064733	-1.2409179	0.94376577	-0.11865053	-1.2286764	0.9487193	0.1222358	-1.3978913	1.0018001	0.01238821	-1.2163852	1.3970028	-0.1499863	-1.2460252	1.4039381	0.1772407	-1.2949182	1.4537193	0.014792553	-1.3000586	1.0298813	-0.2260518	-1.4043239	1.0817605	0.26483934	-1.0473605	0.92540955	-0.22022194	-1.3024387	0.83305978	0.30222302
11	0.04	-1.4812411	0.036158218	-0.053636214	-0.78539075	0.13515353	0.11298744	-1.62867	0.081107443	-0.080983421	-0.92511542	0.087701828	0.14180964	-1.5973167	0.093220757	0.011345643	-0.92946118	0.1234153	0.049007058	NaN	NaN	NaN	-0.97090648	0.034001113	0.089324738	-1.4570853	0.46622737	-0.13438052	-1.08683	0.51696232	0.17325195	-1.4566265	0.46506434	-0.0073443459	-1.0876101	0.49317781	0.044525151	-1.3405797	0.86798154	-0.16814133	-1.2991273	0.85980096	0.20091424	-1.2350438	0.94232756	-0.11859153	-1.2224877	0.94737009	0.12247795	-1.3920004	1.0001951	0.0126821	-1.2105619	1.3956754	-0.14948801	-1.2402386	1.4023729	0.17771504	-1.2890727	1.4523961	0.015831438	-1.2938369	1.0283467	-0.22615924	-1.3984246	1.0801733	0.26538082	-1.040525	0.92508327	-0.21954509	-1.2968873	0.83139265	0.30260709
12	0.044	-1.4811575	0.036099765	-0.053575147	-0.77481561	0.13745019	0.11373615	-1.6282292	0.082052648	-0.080869193	-0.91402628	0.088279649	0.14259326	-1.5972799	0.093740428	0.011673706	-0.91875546	0.12415177	0.049860212	NaN	NaN	NaN	-0.95921188	0.034236578	0.090019559	-1.4531313	0.46577346	-0.13414792	-1.0797442	0.51613488	0.17399511	-1.4526813	0.46459981	-0.007030775	-1.0810393	0.49197194	0.045084396	-1.3349423	0.86667149	-0.16781023	-1.2926197	0.85826749	0.20121476	-1.2291552	0.94089711	-0.11854597	-1.2161926	0.94603255	0.122731	-1.386057	0.99862264	0.013015242	-1.2047068	1.3943457	-0.14898816	-1.2344442	1.4008241	0.17820081	-1.2833374	1.4510724	0.016509583	-1.2876482	1.0268148	-0.22635838	-1.3924114	1.0786015	0.26604184	-1.0337415	0.9246888	-0.21886987	-1.2912566	0.82973276	0.30300576
